<svg width="20" height="11" viewBox="0 0 20 11" fill="none" xmlns="http://www.w3.org/2000/svg">
<path fill-rule="evenodd" clip-rule="evenodd" d="M0 0.37037C0 0.16582 0.16582 0 0.37037 0H13.7037C13.9083 0 14.0741 0.16582 14.0741 0.37037C14.0741 0.57492 13.9083 0.740741 13.7037 0.740741H0.37037C0.16582 0.740741 0 0.57492 0 0.37037Z" fill="black"/>
<path fill-rule="evenodd" clip-rule="evenodd" d="M17.5345 2.84923L19.8915 5.20625C20.0362 5.35089 20.0362 5.5854 19.8915 5.73004L17.5345 8.08706C17.3899 8.2317 17.1554 8.2317 17.0107 8.08706C16.8661 7.94242 16.8661 7.70792 17.0107 7.56328L18.7355 5.83852H0.37037C0.16582 5.83852 0 5.6727 0 5.46815C0 5.2636 0.16582 5.09778 0.37037 5.09778H18.7355L17.0107 3.37302C16.8661 3.22838 16.8661 2.99387 17.0107 2.84923C17.1554 2.70459 17.3899 2.70459 17.5345 2.84923Z" fill="black"/>
<path fill-rule="evenodd" clip-rule="evenodd" d="M0 10.5659C0 10.3613 0.16582 10.1955 0.37037 10.1955H13.7037C13.9083 10.1955 14.0741 10.3613 14.0741 10.5659C14.0741 10.7704 13.9083 10.9363 13.7037 10.9363H0.37037C0.16582 10.9363 0 10.7704 0 10.5659Z" fill="black"/>
</svg>
