<svg width="25" height="25" viewBox="0 0 25 25" fill="none" xmlns="http://www.w3.org/2000/svg">
<mask id="mask0_1765_346" style="mask-type:alpha" maskUnits="userSpaceOnUse" x="0" y="0" width="25" height="25">
<rect x="0.543274" y="0.780838" width="24" height="24" fill="#D9D9D9"/>
</mask>
<g mask="url(#mask0_1765_346)">
<path d="M21.0433 24.0808L18.7433 21.7808H4.54329C3.99329 21.7808 3.52245 21.585 3.13079 21.1933C2.73912 20.8017 2.54329 20.3308 2.54329 19.7808V8.78084C2.54329 8.23084 2.73912 7.76001 3.13079 7.36834C3.52245 6.97667 3.99329 6.78084 4.54329 6.78084H6.54329L8.54329 8.78084H4.54329V19.7808H16.7183L1.24329 4.28084L2.64329 2.88084L22.4433 22.6808L21.0433 24.0808ZM22.5433 19.9308L20.5433 17.9308V8.78084H11.3933L8.54329 5.93084V4.78084C8.54329 4.23084 8.73912 3.76 9.13079 3.36834C9.52245 2.97667 9.99329 2.78084 10.5433 2.78084H14.5433C15.0933 2.78084 15.5641 2.97667 15.9558 3.36834C16.3475 3.76 16.5433 4.23084 16.5433 4.78084V6.78084H20.5433C21.0933 6.78084 21.5641 6.97667 21.9558 7.36834C22.3475 7.76001 22.5433 8.23084 22.5433 8.78084V19.9308ZM10.5433 6.78084H14.5433V4.78084H10.5433V6.78084Z" fill="#1C1B1F"/>
</g>
</svg>
