<svg width="25" height="25" viewBox="0 0 25 25" fill="none" xmlns="http://www.w3.org/2000/svg">
<mask id="mask0_1765_385" style="mask-type:alpha" maskUnits="userSpaceOnUse" x="0" y="0" width="25" height="25">
<rect x="0.815796" y="0.0254135" width="24" height="24" fill="#D9D9D9"/>
</mask>
<g mask="url(#mask0_1765_385)">
<path d="M5.8158 21.0254C5.2658 21.0254 4.79496 20.8296 4.4033 20.4379C4.01163 20.0462 3.8158 19.5754 3.8158 19.0254V5.02541C3.8158 4.47541 4.01163 4.00458 4.4033 3.61291C4.79496 3.22125 5.2658 3.02541 5.8158 3.02541H12.8158V5.02541H5.8158V19.0254H12.8158V21.0254H5.8158ZM16.8158 17.0254L15.4408 15.5754L17.9908 13.0254H9.8158V11.0254H17.9908L15.4408 8.47541L16.8158 7.02541L21.8158 12.0254L16.8158 17.0254Z" fill="#1C1B1F"/>
</g>
</svg>
