<svg width="25" height="25" viewBox="0 0 25 25" fill="none" xmlns="http://www.w3.org/2000/svg">
<mask id="mask0_1765_376" style="mask-type:alpha" maskUnits="userSpaceOnUse" x="0" y="0" width="25" height="25">
<rect x="0.815796" y="0.0254135" width="24" height="24" fill="#D9D9D9"/>
</mask>
<g mask="url(#mask0_1765_376)">
<path d="M10.0658 22.0254L9.66581 18.8254C9.44914 18.7421 9.24497 18.6421 9.05331 18.5254C8.86164 18.4087 8.67414 18.2837 8.49081 18.1504L5.51581 19.4004L2.76581 14.6504L5.34081 12.7004C5.32414 12.5837 5.31581 12.4712 5.31581 12.3629V11.6879C5.31581 11.5796 5.32414 11.4671 5.34081 11.3504L2.76581 9.40041L5.51581 4.65041L8.49081 5.90041C8.67414 5.76708 8.86581 5.64208 9.06581 5.52541C9.26581 5.40875 9.46581 5.30875 9.66581 5.22541L10.0658 2.02541H15.5658L15.9658 5.22541C16.1825 5.30875 16.3866 5.40875 16.5783 5.52541C16.77 5.64208 16.9575 5.76708 17.1408 5.90041L20.1158 4.65041L22.8658 9.40041L21.0158 10.8004C20.6491 10.6171 20.2741 10.4629 19.8908 10.3379C19.5075 10.2129 19.0991 10.1254 18.6658 10.0754L20.2408 8.87541L19.2658 7.17541L16.7908 8.22541C16.4241 7.84208 16.02 7.52125 15.5783 7.26291C15.1366 7.00458 14.6575 6.80875 14.1408 6.67541L13.8158 4.02541H11.8408L11.4908 6.67541C10.9741 6.80875 10.495 7.00458 10.0533 7.26291C9.61164 7.52125 9.20748 7.83375 8.84081 8.20041L6.36581 7.17541L5.39081 8.87541L7.54081 10.4754C7.45747 10.7254 7.39914 10.9754 7.36581 11.2254C7.33247 11.4754 7.31581 11.7421 7.31581 12.0254C7.31581 12.2921 7.33247 12.5504 7.36581 12.8004C7.39914 13.0504 7.45747 13.3004 7.54081 13.5504L5.39081 15.1754L6.36581 16.8754L8.84081 15.8254C9.12414 16.1087 9.42831 16.3629 9.75331 16.5879C10.0783 16.8129 10.4325 17.0004 10.8158 17.1504C10.8325 18.1004 11.0283 18.9921 11.4033 19.8254C11.7783 20.6587 12.2825 21.3921 12.9158 22.0254H10.0658ZM11.0908 15.0504C11.1908 14.7171 11.3116 14.3962 11.4533 14.0879C11.595 13.7796 11.7575 13.4837 11.9408 13.2004C11.7575 13.0671 11.6158 12.8962 11.5158 12.6879C11.4158 12.4796 11.3658 12.2587 11.3658 12.0254C11.3658 11.6087 11.5116 11.2546 11.8033 10.9629C12.095 10.6712 12.4491 10.5254 12.8658 10.5254C13.0991 10.5254 13.3241 10.5796 13.5408 10.6879C13.7575 10.7962 13.9325 10.9421 14.0658 11.1254C14.3491 10.9421 14.6408 10.7796 14.9408 10.6379C15.2408 10.4962 15.5575 10.3837 15.8908 10.3004C15.5908 9.76708 15.1741 9.33791 14.6408 9.01291C14.1075 8.68791 13.5158 8.52541 12.8658 8.52541C11.8825 8.52541 11.0533 8.86708 10.3783 9.55041C9.70331 10.2337 9.36581 11.0587 9.36581 12.0254C9.36581 12.6587 9.51997 13.2462 9.82831 13.7879C10.1366 14.3296 10.5575 14.7504 11.0908 15.0504ZM17.8158 20.0254L20.8158 17.0254L17.8158 14.0254L17.1158 14.7254L18.9158 16.5254H14.8158V17.5254H18.8908L17.1158 19.3254L17.8158 20.0254ZM17.8158 22.0254C16.4325 22.0254 15.2533 21.5379 14.2783 20.5629C13.3033 19.5879 12.8158 18.4087 12.8158 17.0254C12.8158 15.6421 13.3033 14.4629 14.2783 13.4879C15.2533 12.5129 16.4325 12.0254 17.8158 12.0254C19.1991 12.0254 20.3783 12.5129 21.3533 13.4879C22.3283 14.4629 22.8158 15.6421 22.8158 17.0254C22.8158 18.4087 22.3283 19.5879 21.3533 20.5629C20.3783 21.5379 19.1991 22.0254 17.8158 22.0254Z" fill="#1C1B1F"/>
</g>
</svg>
