<svg width="25" height="25" viewBox="0 0 25 25" fill="none" xmlns="http://www.w3.org/2000/svg">
<mask id="mask0_1765_355" style="mask-type:alpha" maskUnits="userSpaceOnUse" x="0" y="0" width="25" height="25">
<rect x="0.543274" y="0.313736" width="24" height="24" fill="#D9D9D9"/>
</mask>
<g mask="url(#mask0_1765_355)">
<path d="M12.5433 14.3137C13.0933 14.3137 13.5641 14.1179 13.9558 13.7262C14.3474 13.3346 14.5433 12.8637 14.5433 12.3137C14.5433 11.7637 14.3474 11.2929 13.9558 10.9012C13.5641 10.5096 13.0933 10.3137 12.5433 10.3137C11.9933 10.3137 11.5224 10.5096 11.1308 10.9012C10.7391 11.2929 10.5433 11.7637 10.5433 12.3137C10.5433 12.8637 10.7391 13.3346 11.1308 13.7262C11.5224 14.1179 11.9933 14.3137 12.5433 14.3137ZM8.54327 18.3137H16.5433V17.7387C16.5433 17.3387 16.4349 16.9721 16.2183 16.6387C16.0016 16.3054 15.7016 16.0554 15.3183 15.8887C14.8849 15.7054 14.4391 15.5637 13.9808 15.4637C13.5224 15.3637 13.0433 15.3137 12.5433 15.3137C12.0433 15.3137 11.5641 15.3637 11.1058 15.4637C10.6474 15.5637 10.2016 15.7054 9.76827 15.8887C9.38494 16.0554 9.08494 16.3054 8.86827 16.6387C8.65161 16.9721 8.54327 17.3387 8.54327 17.7387V18.3137ZM18.5433 22.3137H6.54327C5.99327 22.3137 5.52244 22.1179 5.13077 21.7262C4.73911 21.3346 4.54327 20.8637 4.54327 20.3137V4.31374C4.54327 3.76374 4.73911 3.2929 5.13077 2.90124C5.52244 2.50957 5.99327 2.31374 6.54327 2.31374H14.5433L20.5433 8.31374V20.3137C20.5433 20.8637 20.3474 21.3346 19.9558 21.7262C19.5641 22.1179 19.0933 22.3137 18.5433 22.3137ZM18.5433 20.3137V9.16374L13.6933 4.31374H6.54327V20.3137H18.5433Z" fill="#1C1B1F"/>
</g>
</svg>
