<svg width="25" height="25" viewBox="0 0 25 25" fill="none" xmlns="http://www.w3.org/2000/svg">
<mask id="mask0_1765_367" style="mask-type:alpha" maskUnits="userSpaceOnUse" x="0" y="0" width="25" height="25">
<rect x="0.815796" y="0.0254116" width="24" height="24" fill="#D9D9D9"/>
</mask>
<g mask="url(#mask0_1765_367)">
<path d="M7.8158 21.0254V19.0254H11.8158V15.9254C10.9991 15.7421 10.27 15.3962 9.6283 14.8879C8.98663 14.3796 8.5158 13.7421 8.2158 12.9754C6.9658 12.8254 5.91996 12.2796 5.0783 11.3379C4.23663 10.3962 3.8158 9.29208 3.8158 8.02541V7.02541C3.8158 6.47541 4.01163 6.00458 4.4033 5.61291C4.79496 5.22125 5.2658 5.02541 5.8158 5.02541H7.8158V3.02541H17.8158V5.02541H19.8158C20.3658 5.02541 20.8366 5.22125 21.2283 5.61291C21.62 6.00458 21.8158 6.47541 21.8158 7.02541V8.02541C21.8158 9.29208 21.395 10.3962 20.5533 11.3379C19.7116 12.2796 18.6658 12.8254 17.4158 12.9754C17.1158 13.7421 16.645 14.3796 16.0033 14.8879C15.3616 15.3962 14.6325 15.7421 13.8158 15.9254V19.0254H17.8158V21.0254H7.8158ZM7.8158 10.8254V7.02541H5.8158V8.02541C5.8158 8.65874 5.99913 9.22958 6.3658 9.73791C6.73246 10.2462 7.2158 10.6087 7.8158 10.8254ZM12.8158 14.0254C13.6491 14.0254 14.3575 13.7337 14.9408 13.1504C15.5241 12.5671 15.8158 11.8587 15.8158 11.0254V5.02541H9.8158V11.0254C9.8158 11.8587 10.1075 12.5671 10.6908 13.1504C11.2741 13.7337 11.9825 14.0254 12.8158 14.0254ZM17.8158 10.8254C18.4158 10.6087 18.8991 10.2462 19.2658 9.73791C19.6325 9.22958 19.8158 8.65874 19.8158 8.02541V7.02541H17.8158V10.8254Z" fill="#1C1B1F"/>
</g>
</svg>
